<?xml version="1.0" standalone="no"?><!DOCTYPE svg PUBLIC "-//W3C//DTD SVG 1.1//EN" "http://www.w3.org/Graphics/SVG/1.1/DTD/svg11.dtd"><svg width="64" height="64" viewBox="0 0 64 64" version="1.1" xmlns="http://www.w3.org/2000/svg" xmlns:xlink="http://www.w3.org/1999/xlink"><defs><style type="text/css"><![CDATA[
@font-face { font-family: ifont; src: url("http://at.alicdn.com/t/font_1442373896_4754455.eot?#iefix") format("embedded-opentype"), url("http://at.alicdn.com/t/font_1442373896_4754455.woff") format("woff"), url("http://at.alicdn.com/t/font_1442373896_4754455.ttf") format("truetype"), url("http://at.alicdn.com/t/font_1442373896_4754455.svg#ifont") format("svg"); }

]]></style></defs><g class="transform-group"><g transform="scale(0.0625, 0.0625)"><path d="M747.752979 736.573381c8.022002 9.899492 19.798983 16.641387 33.624135 16.641387 24.236686 0 43.950329-19.713643 43.950329-44.12101L825.156763 707.216268c0 0 1.621468-12.118343-3.413618-18.262855C818.329527 680.504709 812.185015 673.933494 804.760397 668.983749 763.796983 624.948079 714.384865 589.190433 658.401533 565.039087 739.474956 509.311776 792.812734 415.778648 792.812734 309.700475c0-170.766231-137.9955-309.188432-308.249687-309.188432S176.3987 138.934245 176.3987 309.700475c0 106.078173 53.337778 199.696641 134.496541 255.338612-136.886074 59.140928-236.051671 186.468872-259.264272 338.972248-3.157596 6.059172-5.376448 12.715726-5.376448 20.055005l0.426702 4.096341c0 24.322027 19.713643 44.12101 43.950329 44.12101 24.236686 0 43.950329-19.713643 43.950329-44.12101l-0.08534-0.512043 1.109426 0C156.429036 756.884407 298.691558 623.923994 473.298108 618.376865 477.053088 618.462205 480.808067 618.974248 484.563047 618.974248c3.84032 0 7.509959-0.426702 11.264939-0.597383 100.360363 3.157596 189.79715 48.558713 251.924994 118.87924L747.752979 736.573381zM484.477706 530.646887c-121.610134 0-220.178348-98.909576-220.178348-220.861072 0-121.951496 98.568214-220.861072 220.178348-220.861072s220.178348 98.909576 220.178348 220.861072C704.656055 431.822652 606.087841 530.646887 484.477706 530.646887zM1000.872739 766.101175c-17.153429-17.23877-44.974415-17.23877-62.127844 0l-146.188182 145.932161L734.43987 854.257855c-17.153429-17.23877-44.974415-17.23877-62.127844 0-17.153429 17.23877-17.153429 45.145095 0 62.383865l84.572381 84.060338c1.365447 1.792149 2.048171 3.92566 3.669639 5.632469 8.790066 8.875406 20.481707 12.971748 32.002667 12.715726 11.606301 0.256021 23.212601-3.84032 32.002667-12.715726 1.706809-1.706809 2.389532-3.84032 3.75498-5.71781l172.473039-172.217018C1018.026169 811.246271 1018.026169 783.254605 1000.872739 766.101175z" fill="#11cd6e"></path></g></g></svg>